# 3ds Max Wavefront OBJ Exporter v0.97b - (c)2007 guruware
# File Created: 21.12.2015 00:31:53

#
# object GrayBlock
#

v  -0.2500 -0.5250 0.2500
v  0.2500 -0.5250 0.2500
v  0.2500 0.4750 0.2500
v  -0.2500 0.4750 0.2500
v  -0.2500 -0.5250 -0.2500
v  -0.2500 0.4750 -0.2500
v  0.2500 -0.5250 -0.2500
v  0.2500 0.4750 -0.2500
v  0.1500 0.4750 -0.1500
v  0.1500 0.4750 0.1500
v  -0.1500 0.4750 -0.1500
v  -0.1500 0.4750 0.1500
# 12 vertices

vn 0.0000 0.0000 1.0000
vn -1.0000 0.0000 -0.0000
vn 0.0000 0.0000 -1.0000
vn 1.0000 0.0000 -0.0000
vn 0.0000 -1.0000 -0.0000
vn 0.0000 1.0000 -0.0000
# 6 vertex normals

vt 0.0000 0.0000 0.0000
vt 1.0000 0.0000 0.0000
vt 1.0000 1.0000 0.0000
vt 0.0000 1.0000 0.0000
vt 0.2000 0.2000 0.0000
vt 0.2000 0.8000 0.0000
vt 0.8000 0.2000 0.0000
vt 0.8000 0.8000 0.0000
# 8 texture coords

g GrayBlock
s 1
f 1/1/1 2/2/1 3/3/1 
f 4/4/1 1/1/1 3/3/1 
f 5/1/2 1/2/2 4/3/2 
f 6/4/2 5/1/2 4/3/2 
f 7/1/3 5/2/3 6/3/3 
f 8/4/3 7/1/3 6/3/3 
f 2/1/4 7/2/4 8/3/4 
f 3/4/4 2/1/4 8/3/4 
f 5/1/5 7/2/5 2/3/5 
f 1/4/5 5/1/5 2/3/5 
f 3/4/6 8/1/6 9/5/6 
f 10/6/6 3/4/6 9/5/6 
f 8/1/6 6/2/6 11/7/6 
f 9/5/6 8/1/6 11/7/6 
f 4/3/6 3/4/6 10/6/6 
f 12/8/6 4/3/6 10/6/6 
f 6/2/6 4/3/6 12/8/6 
f 11/7/6 6/2/6 12/8/6 
# 0 polygons - 18 triangles

#
# object RedBlock
#

v  -0.1500 0.5250 0.1500
v  0.1500 0.5250 0.1500
v  0.1500 0.5250 -0.1500
v  -0.1500 0.5250 -0.1500
v  -0.1500 0.4750 0.1500
v  0.1500 0.4750 0.1500
v  0.1500 0.4750 -0.1500
v  -0.1500 0.4750 -0.1500
# 8 vertices

vn 0.0000 1.0000 -0.0000
vn 0.0000 0.0000 1.0000
vn 1.0000 0.0000 -0.0000
vn -1.0000 0.0000 -0.0000
vn 0.0000 0.0000 -1.0000
# 5 vertex normals

vt 1.0000 1.0000 0.0000
vt 0.0000 1.0000 0.0000
vt 0.0000 0.0000 0.0000
vt 1.0000 0.0000 0.0000
vt -0.0000 1.0000 0.0000
# 5 texture coords

g RedBlock
s 1
f 13/9/7 14/10/7 15/11/7 
f 16/12/7 13/9/7 15/11/7 
f 17/11/8 18/12/8 14/9/8 
f 13/13/8 17/11/8 14/9/8 
f 18/11/9 19/12/9 15/9/9 
f 14/10/9 18/11/9 15/9/9 
f 20/11/10 17/12/10 13/9/10 
f 16/13/10 20/11/10 13/9/10 
f 19/11/11 20/12/11 16/9/11 
f 15/10/11 19/11/11 16/9/11 
# 0 polygons - 10 triangles

